<svg width="688" height="204" viewBox="0 0 688 204" fill="none" xmlns="http://www.w3.org/2000/svg">
<path d="M117.352 0H39.0908L0.230469 149.499H78.492L117.352 0Z" fill="#8A8C8F"/>
<path d="M117.359 0H39.0977L108.187 181.884H186.449L117.359 0Z" fill="#0082BD"/>
<path d="M186.439 32.373H145.415L108.178 181.88H186.439V32.373Z" fill="#8A8C8F"/>
<path d="M223.133 32.373H145.412L186.977 203.47H265.231L223.133 32.373Z" fill="#0082BD"/>
<path d="M320.57 123.621H330.64V162.621H324.12V136.241C324.12 135.481 324.13 134.421 324.14 133.051C324.15 131.681 324.16 130.631 324.16 129.891L317.81 162.621H311.01L304.71 129.891C304.71 130.631 304.72 131.681 304.73 133.051C304.74 134.421 304.75 135.481 304.75 136.241V162.621H298.23V123.621H308.42L314.52 154.291L320.57 123.621Z" fill="#8A8C8F"/>
<path d="M369.81 130.531H352.08V138.811H368.36V145.581H352.08V155.611H370.63V162.621H345.24V123.621H369.81V130.531Z" fill="#8A8C8F"/>
<path d="M403.63 124.471C405.98 125.371 407.89 127.021 409.34 129.421C410.51 131.361 411.3 133.461 411.73 135.721C412.15 137.981 412.37 140.131 412.37 142.181C412.37 147.371 411.48 151.761 409.69 155.361C407.26 160.211 403.52 162.641 398.45 162.641H384.01V123.641H398.45C400.52 123.661 402.25 123.941 403.63 124.471ZM390.79 130.391V155.841H397.25C400.56 155.841 402.87 153.951 404.17 150.151C404.88 148.071 405.24 145.591 405.24 142.721C405.24 138.751 404.71 135.701 403.64 133.581C402.57 131.451 400.44 130.391 397.25 130.391H390.79Z" fill="#8A8C8F"/>
<path d="M449.87 123.621V130.531H439.85V162.621H432.8V130.531H422.73V123.621H449.87Z" fill="#8A8C8F"/>
<path d="M486.65 130.531H468.92V138.811H485.2V145.581H468.92V155.611H487.47V162.621H462.08V123.621H486.65V130.531Z" fill="#8A8C8F"/>
<path d="M504.041 127.701C506.741 124.491 510.171 122.891 514.341 122.891C519.921 122.891 523.991 125.041 526.571 129.351C528.001 131.761 528.761 134.191 528.861 136.621H521.861C521.421 134.751 520.841 133.341 520.151 132.391C518.901 130.701 517.061 129.851 514.611 129.851C512.121 129.851 510.151 131.051 508.711 133.431C507.271 135.821 506.551 139.201 506.551 143.581C506.551 147.961 507.311 151.231 508.831 153.411C510.351 155.591 512.281 156.681 514.621 156.681C517.021 156.681 518.851 155.741 520.111 153.871C520.811 152.871 521.381 151.361 521.841 149.351H528.801C528.201 153.601 526.671 157.061 524.201 159.721C521.731 162.391 518.571 163.721 514.721 163.721C509.951 163.721 506.211 161.921 503.481 158.321C500.751 154.701 499.391 149.751 499.391 143.451C499.381 136.631 500.931 131.381 504.041 127.701Z" fill="#8A8C8F"/>
<path d="M566.41 127.701C569.11 124.491 572.54 122.891 576.71 122.891C582.29 122.891 586.36 125.041 588.94 129.351C590.37 131.761 591.13 134.191 591.23 136.621H584.23C583.79 134.751 583.21 133.341 582.52 132.391C581.27 130.701 579.43 129.851 576.98 129.851C574.49 129.851 572.52 131.051 571.08 133.431C569.64 135.821 568.92 139.201 568.92 143.581C568.92 147.961 569.68 151.231 571.2 153.411C572.72 155.591 574.65 156.681 576.99 156.681C579.39 156.681 581.22 155.741 582.48 153.871C583.18 152.871 583.75 151.361 584.21 149.351H591.17C590.57 153.601 589.04 157.061 586.57 159.721C584.1 162.391 580.94 163.721 577.09 163.721C572.32 163.721 568.58 161.921 565.85 158.321C563.12 154.701 561.76 149.751 561.76 143.451C561.76 136.631 563.31 131.381 566.41 127.701Z" fill="#8A8C8F"/>
<path d="M624.879 159.091C622.789 162.101 619.609 163.601 615.359 163.601C611.099 163.601 607.929 162.101 605.839 159.091C603.749 156.091 602.699 152.471 602.699 148.241C602.699 144.081 603.749 140.481 605.839 137.431C607.929 134.381 611.109 132.861 615.359 132.861C619.619 132.861 622.789 134.391 624.879 137.431C626.969 140.481 628.019 144.081 628.019 148.241C628.019 152.471 626.979 156.091 624.879 159.091ZM619.699 154.931C620.709 153.361 621.219 151.141 621.219 148.251C621.219 145.361 620.709 143.141 619.699 141.581C618.679 140.021 617.229 139.241 615.339 139.241C613.449 139.241 611.989 140.021 610.959 141.581C609.939 143.141 609.429 145.361 609.429 148.251C609.429 151.141 609.939 153.371 610.959 154.931C611.979 156.501 613.439 157.281 615.339 157.281C617.229 157.281 618.689 156.491 619.699 154.931Z" fill="#8A8C8F"/>
<path d="M639.431 154.711H632.541V162.621H639.431V154.711Z" fill="#8A8C8F"/>
<path d="M605.219 50.16H543.569L539.629 39H601.279L605.219 50.16Z" fill="#8A8C8F"/>
<path d="M612.189 80.8612H550.539L546.609 69.7012H608.259L612.189 80.8612Z" fill="#8A8C8F"/>
<path d="M619.17 111.56H557.52L553.59 100.4H615.24L619.17 111.56Z" fill="#8A8C8F"/>
<path d="M483.81 40.3906H472.65V111.561H483.81V40.3906Z" fill="#0082BD"/>
<path d="M400.09 40.3906H388.93V111.561H400.09V40.3906Z" fill="#0082BD"/>
<path d="M453.109 40.3906H441.949V111.561H453.109V40.3906Z" fill="#0082BD"/>
<path d="M641.5 40.3906H630.34V111.561H641.5V40.3906Z" fill="#0082BD"/>
<path d="M686.151 111.56H674.991L659.641 82.25H670.801L686.151 111.56Z" fill="#0082BD"/>
<path d="M641.5 111.561H630.34L676.38 40.3906H687.55L641.5 111.561Z" fill="#0082BD"/>
<path d="M531.26 100.391H472.65V111.551H531.26V100.391Z" fill="#0082BD"/>
<path d="M447.54 40.3906H388.93V51.5506H447.54V40.3906Z" fill="#0082BD"/>
<path d="M364.57 43.0105L337.99 80.0405L311.42 43.0105C310.14 41.3605 308.17 40.4005 306.08 40.4005H298.23V111.57H309.39V57.7305L329.61 86.2705L331.39 88.6305L335.19 93.6405H335.91H340.1H340.81L344.61 88.6305L346.39 86.2705L366.61 57.7305V111.57H377.77V40.4005H369.92C367.82 40.3905 365.85 41.3605 364.57 43.0105Z" fill="#0082BD"/>
<path d="M447.54 71.0918H388.93V82.2518H447.54V71.0918Z" fill="#0082BD"/>
</svg>
