<svg width="688" height="204" viewBox="0 0 688 204" fill="none" xmlns="http://www.w3.org/2000/svg">
<path d="M117.122 0H38.8603L0 149.499H78.2615L117.122 0Z" fill="#8A8C8F"/>
<path d="M117.129 0H38.8672L107.957 181.884H186.218L117.129 0Z" fill="white"/>
<path d="M186.209 32.373H145.185L107.947 181.88H186.209V32.373Z" fill="#8A8C8F"/>
<path d="M222.902 32.373H145.182L186.747 203.47H265L222.902 32.373Z" fill="white"/>
<path d="M320.34 123.621H330.41V162.621H323.89V136.241C323.89 135.481 323.9 134.421 323.91 133.051C323.92 131.681 323.93 130.631 323.93 129.891L317.58 162.621H310.78L304.48 129.891C304.48 130.631 304.49 131.681 304.5 133.051C304.51 134.421 304.52 135.481 304.52 136.241V162.621H298V123.621H308.19L314.29 154.291L320.34 123.621Z" fill="#8A8C8F"/>
<path d="M369.58 130.531H351.85V138.811H368.13V145.581H351.85V155.611H370.4V162.621H345.01V123.621H369.58V130.531Z" fill="#8A8C8F"/>
<path d="M403.399 124.471C405.749 125.371 407.659 127.021 409.109 129.421C410.279 131.361 411.069 133.461 411.499 135.721C411.919 137.981 412.139 140.131 412.139 142.181C412.139 147.371 411.249 151.761 409.459 155.361C407.029 160.211 403.289 162.641 398.219 162.641H383.779V123.641H398.219C400.289 123.661 402.019 123.941 403.399 124.471ZM390.559 130.391V155.841H397.019C400.329 155.841 402.639 153.951 403.939 150.151C404.649 148.071 405.009 145.591 405.009 142.721C405.009 138.751 404.479 135.701 403.409 133.581C402.339 131.451 400.209 130.391 397.019 130.391H390.559Z" fill="#8A8C8F"/>
<path d="M449.64 123.621V130.531H439.62V162.621H432.57V130.531H422.5V123.621H449.64Z" fill="#8A8C8F"/>
<path d="M486.42 130.531H468.69V138.811H484.97V145.581H468.69V155.611H487.24V162.621H461.85V123.621H486.42V130.531Z" fill="#8A8C8F"/>
<path d="M503.81 127.701C506.51 124.491 509.94 122.891 514.11 122.891C519.69 122.891 523.76 125.041 526.34 129.351C527.77 131.761 528.53 134.191 528.63 136.621H521.63C521.19 134.751 520.61 133.341 519.92 132.391C518.67 130.701 516.83 129.851 514.38 129.851C511.89 129.851 509.92 131.051 508.48 133.431C507.04 135.821 506.32 139.201 506.32 143.581C506.32 147.961 507.08 151.231 508.6 153.411C510.12 155.591 512.05 156.681 514.39 156.681C516.79 156.681 518.62 155.741 519.88 153.871C520.58 152.871 521.15 151.361 521.61 149.351H528.57C527.97 153.601 526.44 157.061 523.97 159.721C521.5 162.391 518.34 163.721 514.49 163.721C509.72 163.721 505.98 161.921 503.25 158.321C500.52 154.701 499.16 149.751 499.16 143.451C499.15 136.631 500.7 131.381 503.81 127.701Z" fill="#8A8C8F"/>
<path d="M566.179 127.701C568.879 124.491 572.309 122.891 576.479 122.891C582.059 122.891 586.129 125.041 588.709 129.351C590.139 131.761 590.899 134.191 590.999 136.621H583.999C583.559 134.751 582.979 133.341 582.289 132.391C581.039 130.701 579.199 129.851 576.749 129.851C574.259 129.851 572.289 131.051 570.849 133.431C569.409 135.821 568.689 139.201 568.689 143.581C568.689 147.961 569.449 151.231 570.969 153.411C572.489 155.591 574.419 156.681 576.759 156.681C579.159 156.681 580.989 155.741 582.249 153.871C582.949 152.871 583.519 151.361 583.979 149.351H590.939C590.339 153.601 588.809 157.061 586.339 159.721C583.869 162.391 580.709 163.721 576.859 163.721C572.089 163.721 568.349 161.921 565.619 158.321C562.889 154.701 561.529 149.751 561.529 143.451C561.529 136.631 563.079 131.381 566.179 127.701Z" fill="#8A8C8F"/>
<path d="M624.649 159.091C622.559 162.101 619.379 163.601 615.129 163.601C610.869 163.601 607.699 162.101 605.609 159.091C603.519 156.091 602.469 152.471 602.469 148.241C602.469 144.081 603.519 140.481 605.609 137.431C607.699 134.381 610.879 132.861 615.129 132.861C619.389 132.861 622.559 134.391 624.649 137.431C626.739 140.481 627.789 144.081 627.789 148.241C627.789 152.471 626.749 156.091 624.649 159.091ZM619.469 154.931C620.479 153.361 620.989 151.141 620.989 148.251C620.989 145.361 620.479 143.141 619.469 141.581C618.449 140.021 616.999 139.241 615.109 139.241C613.219 139.241 611.759 140.021 610.729 141.581C609.709 143.141 609.199 145.361 609.199 148.251C609.199 151.141 609.709 153.371 610.729 154.931C611.749 156.501 613.209 157.281 615.109 157.281C616.999 157.281 618.459 156.491 619.469 154.931Z" fill="#8A8C8F"/>
<path d="M639.201 154.711H632.311V162.621H639.201V154.711Z" fill="#8A8C8F"/>
<path d="M604.988 50.16H543.338L539.398 39H601.048L604.988 50.16Z" fill="#8A8C8F"/>
<path d="M611.959 80.8612H550.309L546.379 69.7012H608.029L611.959 80.8612Z" fill="#8A8C8F"/>
<path d="M618.939 111.56H557.289L553.359 100.4H615.009L618.939 111.56Z" fill="#8A8C8F"/>
<path d="M483.58 40.3906H472.42V111.561H483.58V40.3906Z" fill="white"/>
<path d="M399.859 40.3906H388.699V111.561H399.859V40.3906Z" fill="white"/>
<path d="M452.879 40.3906H441.719V111.561H452.879V40.3906Z" fill="white"/>
<path d="M641.269 40.3906H630.109V111.561H641.269V40.3906Z" fill="white"/>
<path d="M685.92 111.56H674.76L659.41 82.25H670.57L685.92 111.56Z" fill="white"/>
<path d="M641.269 111.561H630.109L676.149 40.3906H687.319L641.269 111.561Z" fill="white"/>
<path d="M531.03 100.391H472.42V111.551H531.03V100.391Z" fill="white"/>
<path d="M447.309 40.3906H388.699V51.5506H447.309V40.3906Z" fill="white"/>
<path d="M364.34 43.0105L337.76 80.0405L311.19 43.0105C309.91 41.3605 307.94 40.4005 305.85 40.4005H298V111.57H309.16V57.7305L329.38 86.2705L331.16 88.6305L334.96 93.6405H335.68H339.87H340.58L344.38 88.6305L346.16 86.2705L366.38 57.7305V111.57H377.54V40.4005H369.69C367.59 40.3905 365.62 41.3605 364.34 43.0105Z" fill="white"/>
<path d="M447.309 71.0918H388.699V82.2518H447.309V71.0918Z" fill="white"/>
</svg>
