<svg width="100" height="100" viewBox="0 0 100 100" fill="none" xmlns="http://www.w3.org/2000/svg">
<path d="M94.7701 30.6696C94.1081 30.0029 93.3203 29.4741 92.4525 29.1139C91.5846 28.7538 90.6539 28.5694 89.7143 28.5714H75.4286V25C75.4286 18.3696 72.7947 12.0107 68.1063 7.32233C63.4179 2.63392 57.059 0 50.4286 0C43.7982 0 37.4393 2.63392 32.7509 7.32233C28.0625 12.0107 25.4286 18.3696 25.4286 25V28.5714H11.1429C9.24846 28.5714 7.43164 29.324 6.0921 30.6635C4.75255 32.0031 4 33.8199 4 35.7143V83.9286C4 92.6339 11.3661 100 20.0714 100H80.7858C84.9967 100.001 89.0409 98.3549 92.0536 95.4129C93.5697 93.9666 94.777 92.228 95.6026 90.3021C96.4282 88.3762 96.855 86.303 96.8572 84.2076V35.7143C96.8601 34.7772 96.6771 33.8488 96.3189 32.9829C95.9607 32.117 95.4343 31.3308 94.7701 30.6696ZM67.5023 54.0179L47.5023 79.0179C47.1738 79.4282 46.7588 79.761 46.287 79.9925C45.8151 80.2241 45.2979 80.3485 44.7723 80.3571H44.7143C44.1984 80.3572 43.6887 80.2455 43.2201 80.0297C42.7516 79.8139 42.3353 79.4992 42 79.1071L33.4286 69.0893C33.1237 68.7328 32.8921 68.3198 32.7468 67.8739C32.6016 67.4279 32.5456 66.9577 32.5821 66.4901C32.6186 66.0225 32.7468 65.5666 32.9594 65.1486C33.1721 64.7305 33.465 64.3584 33.8214 64.0536C34.1779 63.7487 34.5909 63.5171 35.0369 63.3718C35.4828 63.2266 35.9531 63.1706 36.4207 63.2071C36.8883 63.2435 37.3441 63.3718 37.7622 63.5844C38.1802 63.7971 38.5523 64.09 38.8572 64.4464L44.625 71.1853L61.9264 49.5536C62.5184 48.8136 63.3801 48.339 64.322 48.2344C65.2638 48.1297 66.2087 48.4035 66.9487 48.9955C67.6887 49.5875 68.1632 50.4493 68.2679 51.3911C68.3725 52.333 68.0987 53.2779 67.5067 54.0179H67.5023ZM68.2857 28.5714H32.5714V25C32.5714 20.264 34.4528 15.722 37.8017 12.3731C41.1505 9.02423 45.6926 7.14286 50.4286 7.14286C55.1646 7.14286 59.7066 9.02423 63.0555 12.3731C66.4044 15.722 68.2857 20.264 68.2857 25V28.5714Z" fill="white"/>
</svg>
