<svg width="63" height="25" viewBox="0 0 63 25" fill="none" xmlns="http://www.w3.org/2000/svg">
<rect width="62.4549" height="25" rx="1.80505" fill="#16366F"/>
<path d="M34.5112 12.5166C34.5112 18.0344 30.0382 22.5067 24.5205 22.5067C19.0028 22.5067 14.5303 18.0342 14.5303 12.5166C14.5303 6.99924 19.0029 2.52637 24.5205 2.52637C30.038 2.52637 34.5112 6.99941 34.5112 12.5166Z" fill="#D9222A"/>
<path d="M37.9327 2.52637C35.3514 2.52637 32.9992 3.50568 31.2262 5.11246C30.865 5.44022 30.5278 5.79352 30.2175 6.1697H32.2359C32.5123 6.50569 32.7666 6.85916 32.9975 7.22788H29.4559C29.2429 7.56855 29.0507 7.92185 28.8803 8.28579H33.5728C33.7338 8.63002 33.875 8.98315 33.9958 9.34347H28.4573C28.341 9.69048 28.2441 10.0437 28.167 10.4014H34.2858C34.4354 11.0966 34.5108 11.8057 34.5107 12.5168C34.5107 13.6262 34.3296 14.6936 33.9956 15.6903H28.4572C28.5777 16.0509 28.7188 16.4041 28.8799 16.7483H33.5727C33.4021 17.1123 33.2098 17.4656 32.9968 17.8065H29.4557C29.6869 18.1754 29.9416 18.5288 30.2173 18.8637H32.2353C31.9253 19.2406 31.588 19.5942 31.2263 19.9218C32.9995 21.5284 35.3514 22.5073 37.9328 22.5073C43.4504 22.5072 47.9235 18.0347 47.9235 12.5171C47.9235 6.99992 43.4505 2.52687 37.9328 2.52687" fill="#EE9F2D"/>
<path d="M46.5923 18.0866C46.5923 17.9084 46.7365 17.7637 46.9149 17.7637C47.0932 17.7637 47.2374 17.9084 47.2374 18.0866C47.2374 18.2646 47.0932 18.4093 46.9149 18.4093C46.7366 18.4093 46.5922 18.2648 46.5923 18.0866ZM46.9149 18.3319C47.0504 18.3319 47.1601 18.222 47.1602 18.0866C47.1602 17.9512 47.0504 17.8415 46.9151 17.8415H46.9149C46.7797 17.8413 46.67 17.9507 46.6697 18.0859V18.0867C46.6696 18.222 46.7792 18.3319 46.9146 18.332C46.9146 18.3319 46.9147 18.3319 46.9149 18.3319ZM46.8713 18.2284H46.8052V17.9449H46.9248C46.9498 17.9449 46.9753 17.9449 46.9974 17.959C47.0204 17.9745 47.0333 18.0019 47.0333 18.0302C47.0333 18.0619 47.0146 18.0916 46.9842 18.1032L47.0364 18.2284H46.9632L46.9198 18.1162H46.8713L46.8713 18.2284ZM46.8713 18.0676H46.9079C46.9216 18.0676 46.9359 18.0687 46.9482 18.062C46.9592 18.055 46.9647 18.042 46.9647 18.0295C46.9647 18.0186 46.958 18.0061 46.9487 18.0008C46.9372 17.9935 46.9189 17.9952 46.9065 17.9952H46.8713V18.0676ZM22.188 13.6116C22.0742 13.5984 22.0241 13.5949 21.9459 13.5949C21.3312 13.5949 21.0199 13.8057 21.0199 14.222C21.0199 14.4786 21.1719 14.642 21.4088 14.642C21.8506 14.642 22.169 14.2212 22.188 13.6116ZM22.9767 15.448H22.0781L22.0987 15.0208C21.8246 15.3585 21.4589 15.5189 20.9619 15.5189C20.3741 15.5189 19.9711 15.0598 19.9711 14.3931C19.9711 13.3899 20.6721 12.8047 21.8754 12.8047C21.9983 12.8047 22.156 12.8158 22.3174 12.8363C22.3511 12.7005 22.3599 12.6423 22.3599 12.5692C22.3599 12.296 22.1708 12.1942 21.6642 12.1942C21.1336 12.1882 20.696 12.3206 20.5163 12.3797C20.5276 12.3113 20.6665 11.4526 20.6665 11.4526C21.2071 11.2942 21.5635 11.2346 21.9647 11.2346C22.896 11.2346 23.3893 11.6527 23.3884 12.443C23.3901 12.6548 23.3551 12.9161 23.3004 13.2595C23.2063 13.8568 23.0043 15.1361 22.9767 15.448ZM19.5172 15.448H18.4326L19.0539 11.5523L17.6667 15.448H16.9276L16.8363 11.5746L16.1832 15.448H15.168L16.016 10.3803H17.5755L17.6701 13.2169L18.6214 10.3803H20.356L19.5172 15.448ZM39.2739 13.6116C39.1605 13.5984 39.1102 13.5949 39.0322 13.5949C38.4177 13.5949 38.1065 13.8057 38.1065 14.222C38.1065 14.4786 38.2582 14.642 38.4951 14.642C38.937 14.642 39.2556 14.2212 39.2739 13.6116ZM40.0633 15.448H39.1647L39.185 15.0208C38.9109 15.3585 38.545 15.5189 38.0485 15.5189C37.4605 15.5189 37.0578 15.0598 37.0578 14.3931C37.0578 13.3899 37.7584 12.8047 38.9619 12.8047C39.0848 12.8047 39.2423 12.8158 39.4035 12.8363C39.4371 12.7005 39.446 12.6423 39.446 12.5692C39.446 12.296 39.2572 12.1942 38.7505 12.1942C38.2199 12.1882 37.7828 12.3206 37.6023 12.3797C37.6137 12.3113 37.7531 11.4526 37.7531 11.4526C38.2937 11.2942 38.6499 11.2346 39.0505 11.2346C39.9823 11.2346 40.4755 11.6527 40.4747 12.443C40.4764 12.6548 40.4414 12.9161 40.3867 13.2595C40.2931 13.8568 40.0906 15.1361 40.0633 15.448ZM27.7973 15.3854C27.5004 15.4789 27.269 15.5189 27.0181 15.5189C26.4636 15.5189 26.161 15.2003 26.161 14.6136C26.1531 14.4316 26.2408 13.9524 26.3096 13.5151C26.3722 13.1301 26.7799 10.7028 26.7799 10.7028H27.858L27.7321 11.3267H28.3833L28.2362 12.3171H27.5827C27.4575 13.1009 27.2791 14.0772 27.2771 14.2066C27.2771 14.4191 27.3905 14.5118 27.6483 14.5118C27.7719 14.5118 27.8676 14.4992 27.9408 14.4728L27.7973 15.3854ZM31.1027 15.352C30.7324 15.4652 30.375 15.5199 29.9964 15.519C28.7896 15.5178 28.1605 14.8875 28.1605 13.6806C28.1605 12.2718 28.9608 11.2347 30.0472 11.2347C30.936 11.2347 31.5037 11.8153 31.5037 12.726C31.5037 13.0282 31.4647 13.3231 31.3708 13.7396H29.2239C29.1513 14.3375 29.5339 14.5865 30.161 14.5865C30.547 14.5865 30.895 14.5069 31.282 14.327L31.1027 15.352ZM30.4968 12.9087C30.5028 12.8229 30.6111 12.1731 29.9952 12.1731C29.6517 12.1731 29.4062 12.4349 29.3062 12.9087H30.4968ZM23.6278 12.6295C23.6278 13.1508 23.8805 13.5103 24.4538 13.7802C24.893 13.9867 24.961 14.0479 24.961 14.2349C24.961 14.4919 24.7673 14.6078 24.3381 14.6078C24.0146 14.6078 23.7136 14.5574 23.3664 14.4453C23.3664 14.4453 23.2238 15.3536 23.2173 15.3971C23.4638 15.4509 23.6837 15.5007 24.346 15.519C25.4904 15.519 26.0189 15.0833 26.0189 14.1415C26.0189 13.5752 25.7976 13.2429 25.2543 12.9932C24.7996 12.7845 24.7474 12.7378 24.7474 12.5454C24.7474 12.3225 24.9276 12.2089 25.2782 12.2089C25.4911 12.2089 25.7819 12.2316 26.0574 12.2708L26.2118 11.3149C25.931 11.2704 25.5052 11.2347 25.2573 11.2347C24.044 11.2347 23.6241 11.8684 23.6278 12.6295ZM36.378 11.343C36.6792 11.343 36.9601 11.422 37.3471 11.6168L37.5245 10.5169C37.3656 10.4546 36.8063 10.0884 36.3325 10.0884C35.6067 10.0884 34.9931 10.4485 34.5616 11.0429C33.9321 10.8344 33.6734 11.2558 33.3561 11.6755L33.0744 11.7411C33.0957 11.6029 33.115 11.4656 33.1085 11.3267H32.1125C31.9764 12.6022 31.7352 13.8941 31.5464 15.1711L31.4972 15.4481H32.5823C32.7634 14.2713 32.8627 13.5179 32.923 13.008L33.3316 12.7807C33.3926 12.5536 33.5837 12.477 33.967 12.4862C33.9154 12.7649 33.8896 13.0478 33.89 13.3313C33.89 14.6795 34.6175 15.519 35.7851 15.519C36.0858 15.519 36.344 15.4794 36.7435 15.3711L36.9345 14.2157C36.5749 14.3927 36.2799 14.4759 36.0127 14.4759C35.3823 14.4759 35.0008 14.0105 35.0008 13.2413C35.0007 12.1254 35.5682 11.343 36.378 11.343Z" fill="black"/>
<path d="M19.8297 15.1444H18.745L19.3666 11.2492L17.9794 15.1444H17.2402L17.1488 11.2714L16.4958 15.1444H15.4805L16.3285 10.0774H17.888L17.9319 13.2143L18.984 10.0774H20.6685L19.8297 15.1444Z" fill="white"/>
<path d="M45.5597 10.3813L45.3193 11.8455C45.0227 11.4553 44.7041 11.1728 44.2835 11.1728C43.7362 11.1728 43.238 11.5877 42.912 12.1983C42.458 12.1041 41.9883 11.9443 41.9883 11.9443L41.9881 11.9481C42.0247 11.6067 42.0393 11.3985 42.036 11.3277H41.0398C40.9042 12.6032 40.663 13.8951 40.4745 15.1721L40.4248 15.4491H41.5096C41.6562 14.4975 41.7684 13.7074 41.851 13.0809C42.2216 12.746 42.4071 12.4538 42.7816 12.4733C42.6158 12.8743 42.5186 13.3362 42.5186 13.81C42.5186 14.8403 43.04 15.52 43.8284 15.52C44.2259 15.52 44.5308 15.383 44.8283 15.0653L44.7776 15.4484H45.8035L46.6295 10.3813H45.5597ZM44.2034 14.4966C43.8342 14.4966 43.6478 14.2234 43.6478 13.6842C43.6478 12.8743 43.9968 12.2998 44.4888 12.2998C44.8615 12.2998 45.0632 12.5839 45.0632 13.1073C45.0633 13.9243 44.7087 14.4966 44.2034 14.4966Z" fill="black"/>
<path d="M22.5007 13.3083C22.387 13.2952 22.3367 13.2916 22.2588 13.2916C21.644 13.2916 21.333 13.5025 21.333 13.9187C21.333 14.175 21.485 14.3388 21.7215 14.3388C22.1637 14.3387 22.4821 13.9181 22.5007 13.3083ZM23.2898 15.1441H22.3912L22.4116 14.7176C22.1377 15.0545 21.7716 15.2157 21.2751 15.2157C20.687 15.2157 20.2842 14.7566 20.2842 14.0899C20.2842 13.0863 20.9849 12.5013 22.1885 12.5013C22.3114 12.5013 22.4691 12.5125 22.6303 12.5331C22.6639 12.3972 22.6727 12.339 22.6727 12.2655C22.6727 11.9924 22.484 11.891 21.9772 11.891C21.4464 11.885 21.0091 12.0174 20.8291 12.0759C20.8405 12.0076 20.9794 11.1499 20.9794 11.1499C21.5197 10.9908 21.8766 10.9311 22.2773 10.9311C23.2089 10.9311 23.7023 11.3495 23.7014 12.1391C23.7031 12.3517 23.6678 12.6129 23.6133 12.9559C23.5194 13.5528 23.3172 14.8329 23.2898 15.1441ZM37.8371 10.2134L37.6594 11.3136C37.2726 11.119 36.9916 11.0397 36.6906 11.0397C35.8808 11.0397 35.3132 11.8221 35.3132 12.938C35.3132 13.7072 35.6948 14.1725 36.3252 14.1725C36.5923 14.1725 36.8871 14.0894 37.2465 13.9122L37.0561 15.067C36.6563 15.176 36.3985 15.2157 36.0974 15.2157C34.93 15.2157 34.2023 14.3762 34.2023 13.028C34.2023 11.2164 35.2074 9.9502 36.6449 9.9502C37.1184 9.95025 37.678 10.1511 37.8371 10.2134ZM39.587 13.3083C39.4734 13.2952 39.4233 13.2916 39.3451 13.2916C38.7306 13.2916 38.4194 13.5025 38.4194 13.9187C38.4194 14.175 38.5712 14.3388 38.8081 14.3388C39.2498 14.3387 39.5684 13.9181 39.587 13.3083ZM40.3762 15.1441H39.4773L39.4979 14.7176C39.2239 15.0545 38.8579 15.2157 38.3614 15.2157C37.7735 15.2157 37.3705 14.7566 37.3705 14.0899C37.3705 13.0863 38.0715 12.5013 39.2746 12.5013C39.3978 12.5013 39.5552 12.5125 39.7166 12.5331C39.75 12.3972 39.7591 12.339 39.7591 12.2655C39.7591 11.9924 39.5703 11.891 39.0636 11.891C38.533 11.885 38.0954 12.0174 37.9155 12.0759C37.9268 12.0076 38.066 11.1499 38.066 11.1499C38.6063 10.9908 38.9629 10.9311 39.3636 10.9311C40.2954 10.9311 40.7886 11.3495 40.7875 12.1391C40.7894 12.3517 40.7543 12.6129 40.6996 12.9559C40.606 13.5528 40.4033 14.8329 40.3762 15.1441ZM28.1102 15.0816C27.8131 15.1751 27.5817 15.2157 27.331 15.2157C26.7765 15.2157 26.4739 14.897 26.4739 14.3104C26.4662 14.1278 26.5539 13.6492 26.6228 13.2119C26.6851 12.8264 27.0929 10.3994 27.0929 10.3994H28.1708L28.045 11.0235H28.5984L28.4511 12.0135H27.8959C27.7707 12.7977 27.5919 13.7732 27.59 13.9029C27.59 14.1161 27.7037 14.2081 27.9613 14.2081C28.0849 14.2081 28.1805 14.196 28.2537 14.1696L28.1102 15.0816ZM31.4157 15.0488C31.0456 15.1619 30.6877 15.2164 30.3093 15.2157C29.1024 15.2146 28.4734 14.5843 28.4734 13.3772C28.4734 11.968 29.2737 10.9312 30.3601 10.9312C31.2489 10.9312 31.8166 11.5116 31.8166 12.4228C31.8166 12.7251 31.7776 13.0201 31.684 13.4364H29.5371C29.4644 14.0342 29.8471 14.2835 30.4742 14.2835C30.8599 14.2835 31.2082 14.2037 31.5949 14.0232L31.4157 15.0488ZM30.8095 12.6048C30.816 12.5192 30.9241 11.8692 30.3079 11.8692C29.9647 11.8692 29.7191 12.1317 29.6191 12.6048H30.8095ZM23.9405 12.3263C23.9405 12.8475 24.1933 13.2066 24.7665 13.477C25.2057 13.6834 25.2737 13.7448 25.2737 13.9317C25.2737 14.1887 25.0798 14.3046 24.651 14.3046C24.3273 14.3046 24.0263 14.254 23.6789 14.1421C23.6789 14.1421 23.5368 15.0504 23.5303 15.0938C23.7763 15.1476 23.9964 15.1967 24.6587 15.2157C25.8033 15.2157 26.3316 14.78 26.3316 13.8385C26.3316 13.2719 26.1106 12.9396 25.567 12.6899C25.1125 12.4807 25.0599 12.4348 25.0599 12.2421C25.0599 12.0195 25.2405 11.9049 25.5909 11.9049C25.8036 11.9049 26.0944 11.9283 26.3703 11.9675L26.5245 11.0114C26.244 10.9669 25.8182 10.9312 25.5702 10.9312C24.3567 10.9312 23.937 11.5645 23.9405 12.3263ZM46.1165 15.1441H45.0904L45.1414 14.7605C44.8438 15.0786 44.5389 15.2157 44.1414 15.2157C43.3529 15.2157 42.8319 14.536 42.8319 13.5057C42.8319 12.1349 43.64 10.9793 44.5966 10.9793C45.0173 10.9793 45.3358 11.1512 45.6321 11.5412L45.8728 10.077H46.9425L46.1165 15.1441ZM44.5167 14.1919C45.0217 14.1919 45.3766 13.6196 45.3766 12.8031C45.3766 12.2797 45.1745 11.9956 44.8019 11.9956C44.31 11.9956 43.9606 12.5698 43.9606 13.38C43.9606 13.9191 44.1474 14.1919 44.5167 14.1919ZM41.353 11.0235C41.2173 12.2989 40.9761 13.5909 40.7875 14.8672L40.7379 15.1441H41.8227C42.2106 12.6243 42.3045 12.1322 42.9128 12.1938C43.0098 11.6781 43.1901 11.2264 43.3246 10.9984C42.8703 10.9038 42.6166 11.1605 42.2845 11.6482C42.3108 11.4374 42.3588 11.2327 42.3493 11.0235H41.353ZM32.4247 11.0235C32.2886 12.2989 32.0474 13.5909 31.8589 14.8672L31.8095 15.1441H32.8948C33.2823 12.6243 33.376 12.1322 33.9839 12.1938C34.0813 11.6781 34.2618 11.2264 34.3958 10.9984C33.942 10.9038 33.6881 11.1605 33.3563 11.6482C33.3824 11.4374 33.43 11.2327 33.4209 11.0235H32.4247ZM46.593 14.8215C46.593 14.6426 46.7375 14.4987 46.9156 14.4987C47.0935 14.4985 47.238 14.6427 47.2381 14.8207V14.8215C47.2381 14.9996 47.0937 15.144 46.9156 15.1441C46.7375 15.144 46.5931 14.9996 46.593 14.8215ZM46.9156 15.0666C47.0509 15.0667 47.1606 14.957 47.1606 14.8217V14.8216C47.1608 14.6862 47.0511 14.5763 46.9158 14.5762H46.9156C46.7801 14.5763 46.6703 14.6861 46.6702 14.8216C46.6704 14.9569 46.7802 15.0666 46.9156 15.0666ZM46.872 14.9625H46.8058V14.6796H46.9257C46.9505 14.6796 46.9763 14.68 46.9979 14.6937C47.021 14.7095 47.0343 14.7364 47.0343 14.7646C47.0343 14.7966 47.0154 14.8266 46.9848 14.8379L47.0372 14.9624H46.9638L46.9204 14.8506H46.872V14.9624V14.9625ZM46.872 14.8023H46.9084C46.922 14.8023 46.9369 14.8033 46.9489 14.7967C46.9598 14.7897 46.9654 14.7766 46.9654 14.764C46.9649 14.7523 46.959 14.7415 46.9494 14.7349C46.938 14.7283 46.9192 14.7301 46.9069 14.7301H46.8719L46.872 14.8023Z" fill="white"/>
</svg>
