<svg width="100" height="100" viewBox="0 0 100 100" fill="none" xmlns="http://www.w3.org/2000/svg">
<g clip-path="url(#clip0_63_49)">
<path d="M80.113 99.9991C75.7558 99.9991 69.6352 98.4232 60.4699 93.3026C49.3246 87.0526 40.704 81.2824 29.6191 70.2265C18.9314 59.5455 13.7305 52.6303 6.45137 39.3846C-1.77194 24.429 -0.370139 16.5896 1.19684 13.2392C3.06294 9.23465 5.81743 6.83953 9.37774 4.46227C11.4 3.13733 13.54 2.00156 15.7707 1.06937C15.9939 0.973387 16.2015 0.881868 16.3868 0.799278C17.4917 0.301504 19.1658 -0.450737 21.2864 0.352844C22.7016 0.8841 23.965 1.97117 25.9427 3.92432C29.9985 7.92436 35.541 16.833 37.5857 21.208C38.9584 24.1567 39.8669 26.1032 39.8692 28.2862C39.8692 30.8421 38.5834 32.8131 37.0232 34.9403C36.7307 35.3399 36.4406 35.7216 36.1593 36.0921C34.4606 38.3243 34.0879 38.9694 34.3334 40.1212C34.8312 42.4359 38.5433 49.3267 44.6438 55.4138C50.7443 61.5009 57.4363 64.9786 59.76 65.4742C60.9609 65.7309 61.6194 65.3425 63.923 63.5835C64.2534 63.3313 64.5927 63.0701 64.9476 62.809C67.3271 61.0388 69.2066 59.7866 71.7021 59.7866H71.7155C73.8874 59.7866 75.7468 60.7286 78.8272 62.2822C82.8451 64.309 92.0216 69.78 96.0462 73.8403C98.0038 75.8136 99.0953 77.0725 99.6288 78.4855C100.432 80.6127 99.6757 82.2802 99.1824 83.3963C99.0998 83.5815 99.0083 83.7847 98.9123 84.0101C97.9727 86.2368 96.8302 88.3723 95.4993 90.3896C93.1265 93.9388 90.7225 96.6866 86.709 98.5549C84.6481 99.5297 82.3926 100.024 80.113 99.9991Z" fill="white"/>
</g>
<defs>
<clipPath id="clip0_63_49">
<rect width="100" height="100" fill="white"/>
</clipPath>
</defs>
</svg>
