<svg width="63" height="25" viewBox="0 0 63 25" fill="none" xmlns="http://www.w3.org/2000/svg">
<rect width="62.4549" height="25" rx="1.80505" fill="#0E4595"/>
<path d="M26.3282 17.5139L28.0171 7.60336H30.7185L29.0284 17.5139H26.3282ZM38.7878 7.81701C38.2527 7.61622 37.4139 7.40076 36.3667 7.40076C33.6975 7.40076 31.8172 8.74488 31.8013 10.6714C31.7861 12.0955 33.1436 12.8899 34.1681 13.364C35.2197 13.8497 35.5731 14.1595 35.5681 14.5933C35.5615 15.2576 34.7285 15.5611 33.9521 15.5611C32.8708 15.5611 32.2964 15.4109 31.4093 15.0409L31.0612 14.8834L30.682 17.102C31.313 17.3786 32.4798 17.6183 33.6911 17.6307C36.5308 17.6307 38.3741 16.3019 38.3951 14.2447C38.4052 13.1173 37.6855 12.2593 36.127 11.552C35.1828 11.0936 34.6046 10.7876 34.6107 10.3234C34.6107 9.91146 35.1002 9.47091 36.1577 9.47091C37.0411 9.45724 37.681 9.64987 38.1796 9.85061L38.4216 9.96502L38.7878 7.81701ZM45.7392 7.60321H43.6518C43.0052 7.60321 42.5212 7.77974 42.2373 8.42508L38.2255 17.5074H41.0621C41.0621 17.5074 41.5258 16.2862 41.6307 16.0181C41.9408 16.0181 44.6964 16.0223 45.0904 16.0223C45.1712 16.3693 45.419 17.5074 45.419 17.5074H47.9257L45.7392 7.60291V7.60321ZM42.4274 14.0029C42.6507 13.4319 43.5037 11.2324 43.5037 11.2324C43.4877 11.2589 43.7254 10.6587 43.8618 10.2865L44.0443 11.1411C44.0443 11.1411 44.5617 13.5068 44.6698 14.0029H42.4274ZM24.0349 7.60321L21.3902 14.3618L21.1084 12.9883C20.616 11.4051 19.082 9.68977 17.3672 8.831L19.7854 17.4982L22.6435 17.495L26.8963 7.60311H24.0349" fill="white"/>
<path d="M18.9226 7.60238H14.5667L14.5322 7.80858C17.921 8.62892 20.1634 10.6114 21.0944 12.9932L20.1472 8.43887C19.9837 7.81136 19.5094 7.62409 18.9227 7.60217" fill="#F2AE14"/>
</svg>
